PathFileType	4	(X/Y/Z)	Patient4_TMGait_0pt3_03_right_19.trc.trc
DataRate	CameraRate	NumFrames	NumMarkers	Units	OrigDataRate	OrigDataStartFrame	OrigNumFrames
56.000000000000	56.000000000000	4	33	mm	56.000000000000	124	       141
Frame#	Time	Sacral			L.Shoulder			Chest			R.Shoulder			Neck			R.ASIS			L.ASIS			R.Thigh.Superior			R.Thigh.Lateral			R.Thigh.Inferior			R.Patella			L.Thigh.Superior			L.Thigh.Lateral			L.Thigh.Inferior			L.Patella			L.Shank.Superior			L.Shank.Lateral			L.Shank.Inferior			R.Shank.Superior			R.Shank.Lateral			R.Shank.Inferior			R.Heel			R.Midfoot.Superior			R.Midfoot.Lateral			R.Toe			L.Heel			L.Midfoot.Lateral			L.Midfoot.Superior			L.Toe			L.Elbow			L.Wrist			R.Elbow			R.Wrist			
		X1	Y1	Z1	X2	Y2	Z2	X3	Y3	Z3	X4	Y4	Z4	X5	Y5	Z5	X6	Y6	Z6	X7	Y7	Z7	X8	Y8	Z8	X9	Y9	Z9	X10	Y10	Z10	X11	Y11	Z11	X12	Y12	Z12	X13	Y13	Z13	X14	Y14	Z14	X15	Y15	Z15	X16	Y16	Z16	X17	Y17	Z17	X18	Y18	Z18	X19	Y19	Z19	X20	Y20	Z20	X21	Y21	Z21	X22	Y22	Z22	X23	Y23	Z23	X24	Y24	Z24	X25	Y25	Z25	X26	Y26	Z26	X27	Y27	Z27	X28	Y28	Z28	X29	Y29	Z29	X30	Y30	Z30	X31	Y31	Z31	X32	Y32	Z32	X33	Y33	Z33	

124	37.916428571429	705.280129814328	1003.030082784828	429.075565566780	923.016590377991	1423.512620562938	270.765266256681	990.710054677575	1359.459549682481	449.995727185997	877.832970539388	1439.625326196829	603.273797600889	868.581279467014	1488.863936883470	421.946051509389	910.128282952574	939.769539945881	586.384546729843	942.494032660641	951.017621587330	312.887016583971	974.128403808776	750.546217754769	569.140864578205	906.817844896569	635.831723848970	634.855606344429	997.131604310482	590.868378355992	561.964446361341	1014.857896024218	508.990272938120	577.767932888194	945.110587790315	723.303971375961	346.852175643901	841.485191194207	623.169576930939	272.396732948727	897.200944740398	533.565707300836	344.940563876173	882.013694330984	466.114313712581	353.796626755662	845.363761140429	399.748456216834	342.157035928466	744.199947920683	300.730437074975	281.108831395128	765.322098809940	183.914569737331	357.115170280627	996.951478276555	419.009573338695	591.534313392227	936.228339991771	311.953697627163	659.814266635554	998.815719044934	219.711244947413	610.863441937234	891.937185200396	40.627812037892	592.660531541082	1057.364827562232	106.783290263342	625.825275847758	977.671317459291	37.449497683125	664.605074202079	1181.010908244743	67.410961393304	650.080597484535	614.699858728399	39.357464513049	387.273265578802	693.305759001259	35.262106403427	311.658794023752	776.512649193091	94.627326893432	344.685593511943	905.243251063160	39.836698927808	322.231553826951	1038.381647562021	1109.141533146554	131.636303433516	1295.898834498535	1080.506015124111	147.681188691652	722.943900850868	1128.394358480784	694.442966479163	692.506571928475	868.368523967634	709.367598433895	
125	37.934285714286	707.575866736975	1001.832778373190	434.368342098041	922.133800491927	1423.324799335075	275.875061750073	991.573959745750	1359.186817643427	454.414873995528	879.525841073809	1438.456405239693	608.825333705923	868.889316774553	1488.181654984010	427.557278774719	913.928569129033	938.785852664354	589.955723903749	944.135297151488	950.749690713774	316.323201321237	978.032841935827	749.280352634188	571.226605183679	910.287383592473	634.290672831580	636.366045553602	1000.243119846937	589.705425827560	562.978139502952	1016.680551183890	506.988039342545	577.955472237965	945.194758837442	722.257388314723	349.058225856962	839.509816765083	623.480514042512	274.760120754418	894.557129084855	532.929217823963	346.372617122410	878.926521279176	465.511528843799	355.003285866067	841.822690026443	399.609911208857	343.222219377539	739.577722190220	301.546299652468	282.079116577152	760.511478747333	184.095301383065	357.395972223043	998.164156885090	416.710078799729	591.723299215786	936.758276611209	310.332919071475	660.171816162993	997.120297521623	217.511302081929	610.073296649836	886.978666906734	41.091039245034	592.185440226088	1053.689686888626	104.683510663012	624.730560508293	972.674023548010	37.113928720006	664.090603744238	1176.604008546058	63.113315533673	648.718746543745	609.336455994072	39.786627446777	387.191967569874	687.985378849080	35.468724622433	311.703522746041	771.322156572204	94.764223038196	344.649149667087	899.933176447734	39.699560937351	322.176650761680	1037.268651588306	1109.111509191170	135.633275830797	1295.190432029196	1083.810811518148	150.718743253632	728.293917012253	1125.296984431661	700.930639621007	700.729161543879	865.013595927709	716.531807993994	
126	37.952142857143	709.999688721792	1000.861256572019	439.880509434236	921.390835724495	1423.387792147516	281.184645090404	992.596694514926	1359.126991163998	459.005465384665	881.394016701338	1437.441051337749	614.567192925874	869.334431394694	1487.717759604191	433.366505130230	917.983024016377	938.134487902526	593.657238767046	945.862402929940	950.667035503688	319.899071681204	982.289192200332	748.384801198995	573.167739763453	914.473709200201	633.202407506297	638.021742134614	1003.772811696652	588.807040656848	563.910359136298	1019.116294027852	505.150157804693	578.248566984035	945.528186367317	721.408528351772	351.363166913730	837.873660298784	623.903755123829	277.329328429955	892.449818139003	532.430932662415	347.939344531684	876.477775173260	464.945942076397	356.305756739712	838.754551096428	399.552679213323	344.411179368617	735.290156609892	302.606925129024	283.181846469871	755.919145549532	184.427232686085	357.669215513065	999.658897033926	414.634463422992	591.972100881010	937.383156792084	309.066966985037	660.702111916677	995.130223717687	215.480240173358	609.362216709738	881.276116139795	41.638418614658	591.787114641611	1049.289833403750	102.765569733098	623.824496395199	966.891435318830	36.915342662356	663.728436480220	1171.505491054945	58.977138361126	647.724674784992	604.022263355551	40.568738990408	387.075234217873	682.729137784329	35.856347077809	311.734823433103	766.264184922120	94.971192680316	344.579695380388	894.676533730278	39.511761910283	322.103891913497	1035.639371586988	1109.023152795852	139.760746641724	1293.894147351347	1085.905914435293	153.797151856697	733.816985924414	1122.394969320463	707.751251514180	709.311528044465	861.877240194021	724.217275748606	
127	37.970000000000	712.497408362779	1000.164901641271	445.595822970586	920.826880503370	1423.702912475576	286.626784711034	993.779608473951	1359.284857672129	463.712742728102	883.441240815361	1436.623421173739	620.417377784448	869.936472841383	1487.499820677434	439.293388647112	922.186616865787	937.830985660445	597.504928987272	947.613931787772	950.782674916396	323.620071827991	986.679113204442	747.821580796740	575.086787428208	919.064437291136	632.539840507435	639.905243204503	1007.432026473141	588.131072939280	564.883526346249	1021.872951277048	503.514782896516	578.724194793235	946.119074773281	720.811649247540	353.806129194110	836.683657730140	624.437151047113	280.109090616772	891.038155835405	532.086788383947	349.639864769290	874.829507926132	464.411162005815	357.684551963272	836.293191349591	399.568486498984	345.716481224458	731.454504551037	303.944581189458	284.419651539157	751.620214884678	184.942749194238	357.927238569888	1001.246733048365	412.833290221379	592.343172608888	938.035452036383	308.118450416259	661.433730574382	992.950711513901	213.684307334692	608.787229277096	875.251234590591	42.172543816158	591.509087196305	1044.468269346762	101.126996523501	623.128375644579	960.768196018573	36.821498501471	663.524277255369	1166.082210646761	55.270010897338	647.079988256940	598.786452166856	41.817771579202	386.924186389644	677.552039979731	36.487202141224	311.749111885800	761.383149247981	95.267015148379	344.464259374297	889.471012040651	39.271678982598	322.015128324325	1033.531089538989	1108.865132045098	144.030675795619	1292.055019290569	1086.693136377461	156.947092668326	739.529652828020	1119.733117340119	714.826967618578	718.252727360396	859.010942511592	732.311019284957	
